<?xml version="1.0" standalone="no"?><!DOCTYPE svg PUBLIC "-//W3C//DTD SVG 1.1//EN" "http://www.w3.org/Graphics/SVG/1.1/DTD/svg11.dtd"><svg t="1614321035316" class="icon" viewBox="0 0 1024 1024" version="1.1" xmlns="http://www.w3.org/2000/svg" p-id="1150" xmlns:xlink="http://www.w3.org/1999/xlink" width="200" height="200"><defs><style type="text/css"></style></defs><path d="M383.707429 327.460571A63.195429 63.195429 0 0 1 365.714286 282.331429a60.708571 60.708571 0 0 1 18.505143-44.470858A60.708571 60.708571 0 0 1 428.617143 219.428571a60.708571 60.708571 0 0 1 44.544 18.505143 60.708571 60.708571 0 0 1 18.505143 44.470857 60.708571 60.708571 0 0 1-18.505143 44.544 60.708571 60.708571 0 0 1-44.544 18.505143 63.195429 63.195429 0 0 1-44.982857-17.993143z m0 254.976A63.195429 63.195429 0 0 1 365.714286 537.453714a60.708571 60.708571 0 0 1 18.505143-44.544 60.708571 60.708571 0 0 1 44.470857-18.505143 60.708571 60.708571 0 0 1 44.544 18.505143 60.708571 60.708571 0 0 1 18.505143 44.544 60.708571 60.708571 0 0 1-18.505143 44.470857 60.708571 60.708571 0 0 1-44.544 18.505143 63.195429 63.195429 0 0 1-44.982857-17.993143z m0 254.976A63.195429 63.195429 0 0 1 365.714286 792.429714a60.708571 60.708571 0 0 1 18.505143-44.470857 60.708571 60.708571 0 0 1 44.470857-18.505143 60.708571 60.708571 0 0 1 44.544 18.505143 60.708571 60.708571 0 0 1 18.505143 44.470857 60.708571 60.708571 0 0 1-18.505143 44.470857 60.708571 60.708571 0 0 1-44.544 18.505143 63.195429 63.195429 0 0 1-44.982857-17.993143z m219.428571-509.952A63.195429 63.195429 0 0 1 585.142857 282.331429a60.708571 60.708571 0 0 1 18.505143-44.470858A60.708571 60.708571 0 0 1 648.045714 219.428571a60.708571 60.708571 0 0 1 44.544 18.505143 60.708571 60.708571 0 0 1 18.505143 44.470857 60.708571 60.708571 0 0 1-18.505143 44.544 60.708571 60.708571 0 0 1-44.544 18.505143 63.195429 63.195429 0 0 1-44.982857-17.993143z m0 254.976A63.195429 63.195429 0 0 1 585.142857 537.453714a60.708571 60.708571 0 0 1 18.505143-44.544 60.708571 60.708571 0 0 1 44.470857-18.505143 60.708571 60.708571 0 0 1 44.544 18.505143 60.708571 60.708571 0 0 1 18.505143 44.544 60.708571 60.708571 0 0 1-18.505143 44.470857 60.708571 60.708571 0 0 1-44.544 18.505143 63.195429 63.195429 0 0 1-44.982857-17.993143z m0 254.976A63.195429 63.195429 0 0 1 585.142857 792.429714a60.708571 60.708571 0 0 1 18.505143-44.470857 60.708571 60.708571 0 0 1 44.470857-18.505143 60.708571 60.708571 0 0 1 44.544 18.505143 60.708571 60.708571 0 0 1 18.505143 44.470857 60.708571 60.708571 0 0 1-18.505143 44.470857 60.708571 60.708571 0 0 1-44.544 18.505143 63.195429 63.195429 0 0 1-44.982857-17.993143z" fill="#7E7E7E" p-id="1151"></path><path d="M0 0h1024v1024H0z" fill="#FFFFFF" fill-opacity="0" p-id="1152"></path></svg>