<?xml version="1.0" encoding="UTF-8"?>
<svg width="16px" height="16px" viewBox="0 0 16 16" version="1.1" xmlns="http://www.w3.org/2000/svg" xmlns:xlink="http://www.w3.org/1999/xlink">
    <!-- Generator: Sketch 56.3 (81716) - https://sketch.com -->
    <title>服务详情</title>
    <desc>Created with Sketch.</desc>
    <g stroke="none" stroke-width="1" fill="none" fill-rule="evenodd">
        <g id="编组">
            <rect id="矩形" stroke="#979797" fill="#D8D8D8" opacity="0" x="0.5" y="0.5" width="15" height="15"></rect>
            <path d="M13,4 L15,4 L15,2 L13,2 L13,4 Z M1,4 L11,4 L11,2 L1,2 L1,4 Z M13,9 L15,9 L15,7 L13,7 L13,9 Z M1,9 L11,9 L11,7 L1,7 L1,9 Z M13,14 L15,14 L15,12 L13,12 L13,14 Z M1,14 L11,14 L11,12 L1,12 L1,14 Z" id="Fill-1-Copy-2" fill="#888888" transform="translate(8.000000, 8.000000) scale(-1, 1) translate(-8.000000, -8.000000) "></path>
        </g>
    </g>
</svg>