<svg width="1024" height="1024" viewBox="0 0 1024 1024" style="margin-left: calc(50% - 0.5em)"><g><path d="M639.996 448c-35.346 0-64-28.654-63.998-64.002 0-1.17 0.036-2.33 0.098-3.484 2.032-47.454 45.212-78.946 81.592-97.138 34.742-17.37 69.102-26.060 70.548-26.422 17.146-4.288 34.518 6.138 38.806 23.284 4.284 17.146-6.14 34.518-23.284 38.806-17.626 4.45-38.522 12.12-56.936 21.35 10.648 11.43 17.174 26.752 17.174 43.606 0 35.346-28.654 64-64 64zM280.242 319.044c-17.144-4.286-27.568-21.66-23.282-38.804 4.286-17.146 21.66-27.572 38.806-23.284 1.444 0.362 35.806 9.050 70.548 26.422 36.382 18.19 79.56 49.684 81.592 97.138 0.062 1.154 0.098 2.316 0.098 3.484 0 35.346-28.654 64-64 64s-64-28.654-64-64c0-16.854 6.526-32.176 17.174-43.606-18.414-9.23-39.312-16.9-56.936-21.35zM512 736c81.554 0 152.924-43.592 192.098-108.74l82.328 49.396c-55.962 93.070-157.916 155.344-274.426 155.344s-218.464-62.274-274.426-155.344l82.328-49.396c39.174 65.148 110.542 108.74 192.098 108.74zM1024 64c0-45.516-9.524-88.8-26.652-128-33.576 76.836-96.448 137.932-174.494 169.178-86.194-65.96-193.936-105.178-310.854-105.178s-224.66 39.218-310.854 105.178c-78.048-31.246-140.918-92.342-174.494-169.178-17.128 39.2-26.652 82.484-26.652 128 0 73.574 24.85 141.328 66.588 195.378-42.37 74.542-66.588 160.75-66.588 252.622 0 282.77 229.23 512 512 512s512-229.23 512-512c0-91.872-24.218-178.080-66.588-252.622 41.738-54.050 66.588-121.804 66.588-195.378zM512 928c-229.75 0-416-186.25-416-416s186.25-416 416-416 416 186.25 416 416-186.25 416-416 416z"></path></g></svg>