<?xml version="1.0" encoding="UTF-8"?>
<svg width="16px" height="16px" viewBox="0 0 16 16" version="1.1" xmlns="http://www.w3.org/2000/svg" xmlns:xlink="http://www.w3.org/1999/xlink">
    <!-- Generator: Sketch 55.2 (78181) - https://sketchapp.com -->
    <title>接口列表</title>
    <desc>Created with Sketch.</desc>
    <g id="overview" stroke="none" stroke-width="1" fill="none" fill-rule="evenodd">
        <g id="编组">
            <rect id="矩形" fill="#D8D8D8" opacity="0" x="0" y="0" width="16" height="16"></rect>
            <path d="M1,7 L1,1 L7,1 L7,7 L1,7 Z M9,15 L9,9 L15,9 L15,15 L9,15 Z M1,15 L1,9 L7,9 L7,15 L1,15 Z M9,7 L9,1 L15,1 L15,7 L9,7 Z M11,3 L11,5 L13,5 L13,3 L11,3 Z M3,11 L3,13 L5,13 L5,11 L3,11 Z" id="Combined-Shape" fill="#888888"></path>
        </g>
    </g>
</svg>