<?xml version="1.0" encoding="UTF-8"?>
<svg width="16px" height="16px" viewBox="0 0 16 16" version="1.1" xmlns="http://www.w3.org/2000/svg" xmlns:xlink="http://www.w3.org/1999/xlink">
    <!-- Generator: Sketch 55.2 (78181) - https://sketchapp.com -->
    <title>specialuse</title>
    <desc>Created with Sketch.</desc>
    <g id="specialuse" stroke="none" stroke-width="1" fill="none" fill-rule="evenodd">
        <g id="Combined-Shape-2" transform="translate(-0.000000, -0.000200)">
            <rect id="矩形" fill="currentColor" opacity="0" x="0" y="0.0002" width="16" height="16"></rect>
            <path d="M1,8.1432 L3,7.0002 L3,10.4822 L8,13.3392 L15,9.3392 L15,11.6432 L8,15.6432 L1,11.6432 L1,8.1432 Z M8.0002,0 L15.0002,4.001 L15.0002,7.501 L12.9992,8.644 L12.9992,5.161 L8.0002,2.304 L1.0002,6.304 L1.0002,4.001 L8.0002,0 Z M9,4.0002 L9,8.5542 L11,7.4112 L11,9.7142 L7,12.0002 L7,7.4462 L5,8.5892 L5,6.2862 L9,4.0002 Z" id="Combined-Shape" fill="currentColor"></path>
        </g>
    </g>
</svg>
