<?xml version="1.0" encoding="UTF-8"?>
<svg width="16px" height="16px" viewBox="0 0 16 16" version="1.1" xmlns="http://www.w3.org/2000/svg" xmlns:xlink="http://www.w3.org/1999/xlink">
    <g stroke="none" stroke-width="1" fill="none" fill-rule="evenodd">
        <g>
            <rect fill="currentColor" opacity="0" x="0" y="0" width="16" height="16"></rect>
            <path d="M8,6 C9.103,6 10,6.897 10,8 C10,9.103 9.103,10 8,10 C6.897,10 6,9.103 6,8 C6,6.897 6.897,6 8,6 L8,6 Z M8,12 C10.209,12 12,10.209 12,8 C12,5.791 10.209,4 8,4 C5.791,4 4,5.791 4,8 C4,10.209 5.791,12 8,12 L8,12 Z M3,13 L13,13 L13,3 L3,3 L3,13 Z M1,15 L15,15 L15,1 L1,1 L1,15 Z" fill="currentColor"></path>
        </g>
    </g>
</svg>