<?xml version="1.0" encoding="utf-8"?>
<svg version="1.1" xmlns:xlink="http://www.w3.org/1999/xlink" width="12px" height="13px" xmlns="http://www.w3.org/2000/svg">
  <g transform="matrix(1 0 0 1 -468 -407 )">
    <path d="M 6.9296875 10.7571614583333  C 6.9765625 10.7063802083333  7 10.6414930555556  7 10.5625  L 7 8.9375  C 7 8.85850694444444  6.9765625 8.79361979166667  6.9296875 8.74283854166667  C 6.8828125 8.69205729166667  6.82291666666667 8.66666666666667  6.75 8.66666666666667  L 5.25 8.66666666666667  C 5.17708333333333 8.66666666666667  5.1171875 8.69205729166667  5.0703125 8.74283854166667  C 5.0234375 8.79361979166667  5 8.85850694444444  5 8.9375  L 5 10.5625  C 5 10.6414930555556  5.0234375 10.7063802083333  5.0703125 10.7571614583333  C 5.1171875 10.8079427083333  5.17708333333333 10.8333333333333  5.25 10.8333333333333  L 6.75 10.8333333333333  C 6.82291666666667 10.8333333333333  6.8828125 10.8079427083333  6.9296875 10.7571614583333  Z M 8.90234375 5.560546875  C 8.96744791666667 5.35177951388889  9 5.12326388888889  9 4.875  C 9 4.37847222222222  8.85546875 3.91861979166667  8.56640625 3.49544270833333  C 8.27734375 3.072265625  7.91666666666667 2.74500868055555  7.484375 2.513671875  C 7.05208333333333 2.28233506944444  6.609375 2.16666666666667  6.15625 2.16666666666667  C 4.890625 2.16666666666667  3.92447916666667 2.767578125  3.2578125 3.96940104166667  C 3.1796875 4.10481770833333  3.20052083333333 4.22330729166667  3.3203125 4.32486979166667  L 4.3515625 5.17122395833333  C 4.38802083333333 5.205078125  4.4375 5.22200520833333  4.5 5.22200520833333  C 4.58333333333333 5.22200520833333  4.6484375 5.18815104166667  4.6953125 5.12044270833333  C 4.97135416666667 4.73676215277778  5.1953125 4.47721354166667  5.3671875 4.341796875  C 5.54427083333333 4.20638020833333  5.76822916666667 4.138671875  6.0390625 4.138671875  C 6.2890625 4.138671875  6.51171875 4.21202256944444  6.70703125 4.35872395833333  C 6.90234375 4.50542534722222  7 4.671875  7 4.85807291666667  C 7 5.07248263888889  6.94791666666667 5.24457465277778  6.84375 5.37434895833333  C 6.73958333333333 5.50412326388889  6.5625 5.63107638888889  6.3125 5.75520833333333  C 5.984375 5.91319444444444  5.68359375 6.1572265625  5.41015625 6.4873046875  C 5.13671875 6.8173828125  5 7.17144097222222  5 7.54947916666667  L 5 7.85416666666667  C 5 7.93315972222222  5.0234375 7.998046875  5.0703125 8.048828125  C 5.1171875 8.099609375  5.17708333333333 8.125  5.25 8.125  L 6.75 8.125  C 6.82291666666667 8.125  6.8828125 8.099609375  6.9296875 8.048828125  C 6.9765625 7.998046875  7 7.93315972222222  7 7.85416666666667  C 7 7.74696180555556  7.05598958333333 7.60731336805556  7.16796875 7.43522135416667  C 7.27994791666667 7.26312934027778  7.421875 7.12348090277778  7.59375 7.01627604166667  C 7.76041666666667 6.91471354166667  7.88802083333333 6.83430989583333  7.9765625 6.77506510416667  C 8.06510416666667 6.7158203125  8.18489583333333 6.61707899305556  8.3359375 6.47884114583333  C 8.48697916666667 6.34060329861111  8.60286458333333 6.20518663194444  8.68359375 6.07259114583333  C 8.76432291666667 5.93999565972222  8.83723958333333 5.76931423611111  8.90234375 5.560546875  Z M 11.1953125 3.2373046875  C 11.7317708333333 4.23318142361111  12 5.32074652777778  12 6.5  C 12 7.67925347222222  11.7317708333333 8.76681857638889  11.1953125 9.7626953125  C 10.6588541666667 10.7585720486111  9.93098958333333 11.5470920138889  9.01171875 12.1282552083333  C 8.09244791666667 12.7094184027778  7.08854166666667 13  6 13  C 4.91145833333333 13  3.90755208333333 12.7094184027778  2.98828125 12.1282552083333  C 2.06901041666667 11.5470920138889  1.34114583333333 10.7585720486111  0.8046875 9.7626953125  C 0.268229166666667 8.76681857638889  0 7.67925347222222  0 6.5  C 0 5.32074652777778  0.268229166666667 4.23318142361111  0.8046875 3.2373046875  C 1.34114583333333 2.24142795138889  2.06901041666667 1.45290798611111  2.98828125 0.871744791666666  C 3.90755208333333 0.290581597222221  4.91145833333333 0  6 0  C 7.08854166666667 0  8.09244791666667 0.290581597222221  9.01171875 0.871744791666666  C 9.93098958333333 1.45290798611111  10.6588541666667 2.24142795138889  11.1953125 3.2373046875  Z " fill-rule="nonzero" fill="#dddddd" stroke="none" transform="matrix(1 0 0 1 468 407 )" />
  </g>
</svg>