<?xml version="1.0" encoding="utf-8"?>
<svg version="1.1" xmlns:xlink="http://www.w3.org/1999/xlink" width="16px" height="16px" xmlns="http://www.w3.org/2000/svg">
  <g transform="matrix(1 0 0 1 -332 -123 )">
    <path d="M 15.2521246458924 0  C 15.5694050991501 0  15.7922568460812 0.147727272727273  15.9206798866856 0.443181818181818  C 16.0491029272899 0.753787878787877  15.9962228517469 1.01893939393939  15.7620396600567 1.23863636363636  L 10.1756373937677 6.84090909090909  L 10.1756373937677 15.2727272727273  C 10.1756373937677 15.5909090909091  10.028328611898 15.8143939393939  9.73371104815864 15.9431818181818  C 9.63550519357885 15.9810606060606  9.54107648725213 16  9.45042492917847 16  C 9.24645892351275 16  9.07648725212465 15.9280303030303  8.94050991501416 15.7840909090909  L 6.03966005665722 12.875  C 5.8961284230406 12.7310606060606  5.82436260623229 12.5606060606061  5.82436260623229 12.3636363636364  L 5.82436260623229 6.84090909090909  L 0.237960339943343 1.23863636363636  C 0.00377714825306893 1.01893939393939  -0.0491029272898961 0.753787878787877  0.0793201133144476 0.443181818181818  C 0.207743153918791 0.147727272727273  0.430594900849858 0  0.747875354107649 0  L 15.2521246458924 0  Z " fill-rule="nonzero" fill="#888888" stroke="none" transform="matrix(1 0 0 1 332 123 )" />
  </g>
</svg>